<svg version="1" xmlns="http://www.w3.org/2000/svg" width="682.667" height="682.667" viewBox="0 0 512.000000 512.000000"><path d="M470.5 2.7C433.2 6 388.4 19.3 356 36.7c-41.4 22.3-67.9 45.2-104.4 90.1L240.9 140l-35.2-.6c-38.1-.7-44.8-.3-63.2 4.3-14.3 3.5-25.1 7.5-37.6 13.9-20.5 10.5-29.1 17.6-67.2 55.4-19.2 19-35.6 35.8-36.4 37.4-3.3 6.3 1.2 13.5 8.9 14.2 3.9.4 119 6.4 122.4 6.4 1 0 .4 1.6-2.1 5.1-1.9 2.8-3.5 6.1-3.5 7.4 0 1.2 1.6 5.2 3.5 8.9 2 3.6 3.3 7.1 3 7.6-.3.5-7.3 8.9-15.5 18.7-13.6 16.1-15 18.1-15 21.5 0 8.9 15.3 31.7 30.7 45.8 13.2 12.1 33.4 23.8 38.8 22.4 1.5-.4 10.7-7.2 20.4-15.2 9.7-8 18.1-14.9 18.8-15.4.8-.7 3 0 6.6 2.1 6.9 3.9 9.3 3.9 15.6-.3 5-3.4 5.1-3.4 5.5-1.3.3 1.2 1.6 26.7 3.1 56.7 3.4 71.3 3.2 68.8 6.6 72.2 2.1 2.2 3.7 2.8 7.1 2.8h4.3l35.1-35.2c19.3-19.4 37.7-38.9 41-43.3 17.4-23.2 27.8-47.1 33.1-76 1-5.7 1.6-19 2-45.6l.5-37.6 9.7-7.3c34.1-26.1 54.5-46.4 73.9-73.6 32.4-45.5 51.1-97.7 55.4-154.1 1-13.8 1-15.5-.7-19.8-2.3-6.1-6.9-11.3-12-13.6-3.9-1.8-15.6-2.3-28-1.2zM491.2 32c-.8 26.9-8 59.9-19.4 88.4-13.7 34.5-33.3 64.7-59.7 91.9-14.9 15.3-16.9 17-108.6 88.1l-78 60.5-3.7-2.2c-6.9-4-21.2-14.5-26.8-19.6l-5.5-4.9 27.2-27.4c17.6-17.7 27.4-28.3 27.8-30 1.9-7.7-4.6-14.2-12.2-12.3-1.8.4-12.4 10.2-30.1 27.8l-27.4 27.2-4.4-5c-4.8-5.4-15-19.5-18.8-26l-2.3-4 65.7-81c82.4-101.5 93.2-113 128.5-136.1C378 45 418 30 458 24.6c16-2.2 17.5-2.3 26-2.2l7.5.1-.3 9.5zM217.9 159.9l6.4.6-37.2 45.8-37.3 45.9-7.1-.6c-4-.4-29.9-1.8-57.7-3.2-27.8-1.4-50.7-2.8-51-3.1-.9-.9 48.2-48.6 56.5-54.9 21.3-16.2 43.6-25.9 69-29.9 8.4-1.3 47-1.8 58.4-.6zM352 310.4c0 11.8-.5 26-1 31.7-2 19.7-8.1 40.1-16.8 56.2-8.9 16.6-16.6 26-43.2 53-24.9 25.3-25.5 25.9-26.2 23.1-.8-3.4-6.2-110.2-5.7-112.8.4-1.5 90.3-72.4 92.2-72.5.4-.1.7 9.5.7 21.3zm-198.4 15.2c8 10 25 26.6 34.7 33.9 3.6 2.7 6.5 5.3 6.4 5.6-.1.4-5.9 5.4-12.8 11.2l-12.6 10.5-4-2.2c-6.9-4-15.6-10.8-22.4-17.7-6.9-7-18.4-23-17.8-24.8.5-1.4 20.2-25.1 21-25.1.3 0 3.7 3.9 7.5 8.6z"/><path d="M353.9 108.4c-12 4.9-19.1 11.4-24.2 22.4-2.4 5.3-3.2 8.3-3.5 14.9-.7 13.3 3 23.4 11.9 32.3 24.8 24.8 66.4 11.3 72.1-23.6 3.4-20.3-9.7-40.8-30.1-47-7.3-2.2-19.6-1.8-26.2 1zm23.6 19.5c11.6 5.3 16.6 19.2 10.9 30.4-6.9 13.7-25.2 16.7-35.7 5.9-14.2-14.6-4.7-38.3 15.3-38.2 3.2 0 7.2.8 9.5 1.9zM264.5 235.7c-5.3 1.3-8.9 8.7-6.5 13.4 4 7.8 14 7.8 18 0 3.4-6.7-3.8-15.1-11.5-13.4zM72 389c-17 8.7-23.7 13.8-29.5 22.6-5.5 8.2-8.2 17.1-9.3 30-1.8 20.2 2.4 29.8 15.3 35.5 4.5 2 6 2.1 17 1.6 20.5-1.1 31.5-5.4 42.6-16.6 5.6-5.7 7.8-9.2 14.7-22.9 4.5-8.9 8.2-17.1 8.2-18.3 0-3.5-3-8-6.2-9.4-3.3-1.3-7.7-.7-10.5 1.7-.8.6-4.8 7.9-8.9 16.1-11.2 22.4-17 27-35.9 29-16.5 1.7-17.5.8-16.4-14.6 1.5-19.7 6.2-25.8 28.7-37.1 8.8-4.4 15.8-8.6 17.1-10.2 3.1-3.9 2.8-8.9-.8-12.5-4.8-4.7-8.2-4.1-26.1 5.1zM7 491.1c-6.1 2.4-8.4 8.2-5.6 13.7 2 3.8 4.4 5.2 9.1 5.2 7.4 0 12.1-8.8 7.9-14.9-1.3-1.8-7.3-5.3-8.6-5-.2 0-1.4.5-2.8 1z"/></svg>